<svg height="100%" width="100%" id="bg-svg" viewBox="0 0 1440 500" xmlns="http://www.w3.org/2000/svg" class="transition duration-300 ease-in-out delay-150"><defs><linearGradient id="gradient"><stop offset="5%" stop-color="#00599c88"></stop><stop offset="95%" stop-color="#0693e388"></stop></linearGradient></defs><path d="M 0,500 C 0,500 0,166 0,166 C 50.50920471281299,141.7431885125184 101.01840942562598,117.48637702503682 163,108 C 224.98159057437402,98.51362297496318 298.43556701030917,103.79768041237115 363,113 C 427.56443298969083,122.20231958762885 483.23932253313706,135.32290132547863 539,157 C 594.760677466863,178.67709867452137 650.6071428571428,208.91071428571428 715,200 C 779.3928571428572,191.08928571428572 852.3321060382917,143.0342415316642 908,140 C 963.6678939617083,136.9657584683358 1002.0644329896904,178.95231958762886 1055,195 C 1107.9355670103096,211.04768041237114 1175.4101620029458,201.15648011782034 1242,192 C 1308.5898379970542,182.84351988217966 1374.294918998527,174.42175994108982 1440,166 C 1440,166 1440,500 1440,500 Z" stroke="none" stroke-width="0" fill="url(#gradient)" class="transition-all duration-300 ease-in-out delay-150"></path><defs><linearGradient id="gradient"><stop offset="5%" stop-color="#00599cff"></stop><stop offset="95%" stop-color="#0693e3ff"></stop></linearGradient></defs><path d="M 0,500 C 0,500 0,333 0,333 C 68.64340942562593,307.9885861561119 137.28681885125187,282.97717231222384 195,278 C 252.71318114874813,273.02282768777616 299.49613402061846,288.0798969072165 353,313 C 406.50386597938154,337.9201030927835 466.728645066274,372.7032400589102 532,391 C 597.271354933726,409.2967599410898 667.5892857142857,411.10714285714283 725,388 C 782.4107142857143,364.89285714285717 826.9142120765832,316.8681885125185 889,297 C 951.0857879234168,277.1318114874815 1030.7538659793813,285.4201030927835 1089,304 C 1147.2461340206187,322.5798969072165 1184.070324005891,351.45139911634755 1239,358 C 1293.929675994109,364.54860088365245 1366.9648379970545,348.7743004418262 1440,333 C 1440,333 1440,500 1440,500 Z" stroke="none" stroke-width="0" fill="url(#gradient)" class="transition-all duration-300 ease-in-out delay-150"></path></svg>
