<svg xmlns="http://www.w3.org/2000/svg" viewBox="0 0 1440 320"><path fill="#0099ff" fill-opacity="0.9" d="M0,128L26.7,154.7C53.3,181,107,235,160,240C213.3,245,267,203,320,208C373.3,213,427,267,480,288C533.3,309,587,299,640,256C693.3,213,747,139,800,106.7C853.3,75,907,85,960,106.7C1013.3,128,1067,160,1120,186.7C1173.3,213,1227,235,1280,229.3C1333.3,224,1387,192,1413,176L1440,160L1440,320L1413.3,320C1386.7,320,1333,320,1280,320C1226.7,320,1173,320,1120,320C1066.7,320,1013,320,960,320C906.7,320,853,320,800,320C746.7,320,693,320,640,320C586.7,320,533,320,480,320C426.7,320,373,320,320,320C266.7,320,213,320,160,320C106.7,320,53,320,27,320L0,320Z"></path></svg>
