<svg height="100%" width="100%" id="bg-svg" viewBox="0 0 1440 500" xmlns="http://www.w3.org/2000/svg" class="transition duration-300 ease-in-out delay-150"><defs><linearGradient id="gradient"><stop offset="5%" stop-color="#00599c66"></stop><stop offset="95%" stop-color="#0693e366"></stop></linearGradient></defs><path d="M 0,500 C 0,500 0,125 0,125 C 63.97993372606774,120.73932253313697 127.95986745213548,116.47864506627393 181,118 C 234.04013254786452,119.52135493372607 276.14046391752584,126.82474226804125 330,127 C 383.85953608247416,127.17525773195875 449.47827687776146,120.22238586156112 528,122 C 606.5217231222385,123.77761413843888 697.9464285714286,134.28571428571428 752,125 C 806.0535714285714,115.71428571428572 822.7360088365243,86.63475699558174 874,90 C 925.2639911634757,93.36524300441826 1011.109536082474,129.17525773195877 1088,143 C 1164.890463917526,156.82474226804123 1232.825846833579,148.66421207658323 1290,142 C 1347.174153166421,135.33578792341677 1393.5870765832105,130.1678939617084 1440,125 C 1440,125 1440,500 1440,500 Z" stroke="none" stroke-width="0" fill="url(#gradient)" class="transition-all duration-300 ease-in-out delay-150"></path><defs><linearGradient id="gradient"><stop offset="5%" stop-color="#00599c88"></stop><stop offset="95%" stop-color="#0693e388"></stop></linearGradient></defs><path d="M 0,500 C 0,500 0,250 0,250 C 71.18740795287188,249.1273932253314 142.37481590574376,248.25478645066275 199,247 C 255.62518409425624,245.74521354933725 297.68814432989683,244.10824742268042 358,248 C 418.31185567010317,251.89175257731958 496.8726067746686,261.31222385861565 554,258 C 611.1273932253314,254.68777614138435 646.8214285714286,238.6428571428571 706,238 C 765.1785714285714,237.3571428571429 847.841678939617,252.1163475699558 919,256 C 990.158321060383,259.8836524300442 1049.8118556701031,252.8917525773196 1110,257 C 1170.1881443298969,261.1082474226804 1230.9108983799706,276.31664212076583 1286,277 C 1341.0891016200294,277.68335787923417 1390.5445508100147,263.84167893961705 1440,250 C 1440,250 1440,500 1440,500 Z" stroke="none" stroke-width="0" fill="url(#gradient)" class="transition-all duration-300 ease-in-out delay-150"></path><defs><linearGradient id="gradient"><stop offset="5%" stop-color="#00599cff"></stop><stop offset="95%" stop-color="#0693e3ff"></stop></linearGradient></defs><path d="M 0,500 C 0,500 0,375 0,375 C 41.84315169366717,386.25441826215024 83.68630338733433,397.5088365243004 153,401 C 222.31369661266567,404.4911634756996 319.0979381443299,400.2190721649485 384,396 C 448.9020618556701,391.7809278350515 481.9219440353461,387.6148748159057 542,377 C 602.0780559646539,366.3851251840943 689.2142857142857,349.32142857142856 749,357 C 808.7857142857143,364.67857142857144 841.220913107511,397.09941089838 902,402 C 962.779086892489,406.90058910162 1051.9020618556701,384.28092783505156 1109,367 C 1166.0979381443299,349.71907216494844 1191.1708394698087,337.77687776141386 1241,340 C 1290.8291605301913,342.22312223858614 1365.4145802650955,358.61156111929307 1440,375 C 1440,375 1440,500 1440,500 Z" stroke="none" stroke-width="0" fill="url(#gradient)" class="transition-all duration-300 ease-in-out delay-150"></path></svg>
