<svg xmlns="http://www.w3.org/2000/svg" viewBox="0 0 1440 320"><path fill="#0099ff" fill-opacity="0.9" d="M0,128L26.7,154.7C53.3,181,107,235,160,240C213.3,245,267,203,320,208C373.3,213,427,267,480,288C533.3,309,587,299,640,256C693.3,213,747,139,800,106.7C853.3,75,907,85,960,106.7C1013.3,128,1067,160,1120,186.7C1173.3,213,1227,235,1280,229.3C1333.3,224,1387,192,1413,176L1440,160L1440,0L1413.3,0C1386.7,0,1333,0,1280,0C1226.7,0,1173,0,1120,0C1066.7,0,1013,0,960,0C906.7,0,853,0,800,0C746.7,0,693,0,640,0C586.7,0,533,0,480,0C426.7,0,373,0,320,0C266.7,0,213,0,160,0C106.7,0,53,0,27,0L0,0Z"></path></svg>
