<svg height="100%" width="100%" id="bg-svg" viewBox="0 0 1440 500" xmlns="http://www.w3.org/2000/svg" class="transition duration-300 ease-in-out delay-150">
  <style>
      transform: rotateX(180deg)
  </style>
  <defs>
    <linearGradient id="gradient">
      <stop offset="5%" stop-color="#00599c66"></stop>
      <stop offset="95%" stop-color="#0693e366"></stop>
    </linearGradient>
  </defs>
  <path d="M 0,500 C 0,500 0,125 0,125 C 66.59628129602356,147.40592783505156 133.19256259204712,169.81185567010309 194,165 C 254.80743740795288,160.18814432989691 309.82603092783506,128.15850515463916 368,120 C 426.17396907216494,111.84149484536083 487.50331369661274,127.5541237113402 552,128 C 616.4966863033873,128.4458762886598 684.1607142857143,113.625 745,122 C 805.8392857142857,130.375 859.85382916053,161.9458762886598 912,156 C 964.14617083947,150.0541237113402 1014.4239690721649,106.59149484536081 1066,107 C 1117.576030927835,107.40850515463919 1170.4502945508102,151.68814432989694 1233,162 C 1295.5497054491898,172.31185567010306 1367.774852724595,148.65592783505153 1440,125 C 1440,125 1440,500 1440,500 Z" stroke="none" stroke-width="0" fill="url(#gradient)" class="transition-all duration-300 ease-in-out delay-150"></path>
  <defs>
    <linearGradient id="gradient">
      <stop offset="5%" stop-color="#00599c88"></stop>
      <stop offset="95%" stop-color="#0693e388"></stop>
    </linearGradient>
  </defs>
  <path d="M 0,500 C 0,500 0,250 0,250 C 65.59315169366715,255.7916053019146 131.1863033873343,261.5832106038292 196,252 C 260.8136966126657,242.41678939617083 324.8479381443299,217.45876288659795 376,209 C 427.1520618556701,200.54123711340205 465.4219440353461,208.58173784977905 525,227 C 584.5780559646539,245.41826215022095 665.4642857142858,274.2142857142857 736,280 C 806.5357142857142,285.7857142857143 866.720913107511,268.56111929307804 916,260 C 965.279086892489,251.43888070692194 1003.6520618556701,251.54123711340208 1064,261 C 1124.3479381443299,270.4587628865979 1206.6708394698087,289.27393225331366 1273,289 C 1339.3291605301913,288.72606774668634 1389.6645802650955,269.36303387334317 1440,250 C 1440,250 1440,500 1440,500 Z" stroke="none" stroke-width="0" fill="url(#gradient)" class="transition-all duration-300 ease-in-out delay-150"></path>
  <defs>
    <linearGradient id="gradient">
      <stop offset="5%" stop-color="#00599cff"></stop>
      <stop offset="95%" stop-color="#0693e3ff"></stop>
    </linearGradient>
  </defs>
  <path d="M 0,500 C 0,500 0,375 0,375 C 71.95673784977909,373.29804860088365 143.91347569955818,371.5960972017673 199,364 C 254.08652430044182,356.4039027982327 292.30283505154637,342.9136597938144 346,334 C 399.69716494845363,325.0863402061856 468.87518409425627,320.749263622975 534,340 C 599.1248159057437,359.250736377025 660.1964285714287,402.0892857142857 714,416 C 767.8035714285713,429.9107142857143 814.3391016200294,414.8935935198822 875,404 C 935.6608983799706,393.1064064801178 1010.4471649484535,386.33634020618547 1078,392 C 1145.5528350515465,397.66365979381453 1205.872238586156,415.7610456553756 1265,415 C 1324.127761413844,414.2389543446244 1382.063880706922,394.6194771723122 1440,375 C 1440,375 1440,500 1440,500 Z" stroke="none" stroke-width="0" fill="url(#gradient)" class="transition-all duration-300 ease-in-out delay-150"></path>
</svg>
