<svg version="1.0" xmlns="http://www.w3.org/2000/svg" width="1918.000000pt" height="784.000000pt" viewBox="0 0 1918.000000 784.000000" preserveAspectRatio="xMidYMid meet"> <g transform="translate(0.000000,784.000000) scale(0.100000,-0.100000)" fill="#000000" stroke="none"> <path d="M0 7000 l0 -830 43 0 c137 0 885 -22 1187 -35 1183 -51 1609 -110 2715 -375 413 -99 872 -174 1305 -212 189 -17 813 -17 985 0 263 25 449 57 705 118 156 38 390 111 390 123 0 3 12 8 27 9 15 1 29 5 32 10 3 4 17 9 31 11 14 1 27 6 30 10 3 3 14 8 25 9 11 2 28 11 37 19 10 9 18 13 18 8 0 -4 7 -2 15 5 8 7 15 9 15 5 0 -4 7 -2 15 5 8 7 15 9 15 5 0 -5 9 0 20 10 11 10 20 15 20 10 0 -4 7 -1 17 6 9 8 19 12 22 9 3 -3 6 426 6 952 l0 957 -3837 1 -3838 0 0 -830z m7665 -132 c0 -520 -2 -945 -4 -942 -2 2 -10 -1 -18 -7 -7 -6 -13 -8 -13 -4 0 5 -9 0 -20 -10 -11 -10 -20 -15 -20 -10 0 4 -7 2 -15 -5 -8 -7 -15 -9 -15 -5 0 4 -7 2 -15 -5 -8 -7 -15 -9 -15 -5 0 5 -8 1 -18 -8 -16 -15 -17 32 -17 966 l0 983 85 -1 85 0 0 -947z"/> <path d="M7509 7805 c-1 0 -2 -435 -3 -967 -1 -773 1 -964 11 -956 7 6 13 7 13 3 0 -4 7 -2 15 5 8 7 15 9 15 5 0 -4 7 -2 15 5 8 7 15 9 15 5 0 -5 9 0 20 10 11 10 20 14 20 10 0 -5 6 -3 12 3 10 10 13 213 13 945 l0 932 -72 0 c-40 0 -74 0 -74 0z m136 -938 c0 -611 -3 -927 -10 -928 -5 0 -18 -8 -27 -16 -10 -9 -18 -13 -18 -8 0 4 -7 2 -15 -5 -8 -7 -15 -9 -15 -6 0 4 -6 4 -12 -1 -7 -4 -18 -8 -23 -9 -7 -1 -10 321 -10 950 l0 952 65 -1 65 0 0 -928z"/> <path d="M7526 7780 c-2 -5 0 -1864 3 -1876 0 -4 8 -1 16 6 8 7 15 9 15 5 0 -4 7 -2 15 5 8 7 15 9 15 5 0 -5 8 -1 18 8 10 10 21 15 23 13 2 -2 4 410 4 918 l0 921 -53 0 c-30 0 -55 -2 -56 -5z m99 -913 c0 -853 -1 -909 -17 -924 -10 -9 -18 -13 -18 -8 0 4 -7 2 -15 -5 -8 -7 -15 -9 -15 -5 0 4 -6 3 -13 -3 -10 -8 -12 177 -12 922 l0 932 45 -1 45 -1 0 -907z"/> <path d="M7549 7765 c-1 0 -2 -412 -3 -916 -1 -811 1 -916 14 -914 8 2 16 4 18 5 1 2 6 3 11 4 5 0 13 5 18 9 4 5 8 415 8 911 l0 902 -32 0 c-18 0 -34 0 -34 -1z m56 -911 c0 -712 -3 -899 -12 -900 -7 -1 -15 -2 -18 -3 -3 0 -8 0 -12 2 -5 1 -8 407 -8 903 l0 901 25 -2 25 -1 0 -900z"/> <path d="M7569 7746 c-1 -1 -2 -405 -3 -898 -1 -648 2 -894 10 -887 6 5 13 7 15 5 2 -3 4 397 4 888 0 867 -1 909 -26 892z m16 -893 c0 -481 -2 -876 -5 -878 -3 -2 -5 394 -5 880 0 486 2 881 5 878 3 -2 5 -398 5 -880z"/> </g> </svg>
